<mxfile host="drawio-plugin" modified="2022-03-27T16:44:10.694Z" agent="5.0 (X11; Linux x86_64) AppleWebKit/537.36 (KHTML, like Gecko) Chrome/89.0.4389.114 Safari/537.36" etag="T4pQw28R_lFFv_nLUboF" version="15.5.4" type="embed"><diagram id="23iRSUPoRavnBvh4doch" name="Page-1"><mxGraphModel dx="2019" dy="1531" grid="1" gridSize="10" guides="1" tooltips="1" connect="1" arrows="1" fold="1" page="1" pageScale="1" pageWidth="827" pageHeight="1169" math="0" shadow="1"><root><mxCell id="0"/><mxCell id="1" style="locked=1;" parent="0"/><mxCell id="8" value="Browser" style="locked=1;" parent="0"/><mxCell id="2" value="" style="strokeWidth=1;shadow=1;dashed=0;align=center;html=1;shape=mxgraph.mockup.containers.browserWindow;rSize=0;strokeColor=#666666;strokeColor2=#008cff;strokeColor3=#c4c4c4;mainText=,;recursiveResize=0;sketch=1;" vertex="1" parent="8"><mxGeometry x="40" y="240" width="1920" height="1080" as="geometry"/></mxCell><mxCell id="3" value="Page 1" style="strokeWidth=1;shadow=1;dashed=0;align=center;html=1;shape=mxgraph.mockup.containers.anchor;fontSize=17;fontColor=#666666;align=left;sketch=1;" vertex="1" parent="2"><mxGeometry x="60" y="12" width="110" height="26" as="geometry"/></mxCell><mxCell id="4" value="https://renegade-master.github.io/" style="strokeWidth=1;shadow=1;dashed=0;align=center;html=1;shape=mxgraph.mockup.containers.anchor;rSize=0;fontSize=17;fontColor=#666666;align=left;sketch=1;" vertex="1" parent="2"><mxGeometry x="130" y="60" width="250" height="26" as="geometry"/></mxCell><mxCell id="9" value="Website Structure" style="locked=1;" parent="0"/><mxCell id="5" value="" style="rounded=0;whiteSpace=wrap;html=1;shadow=1;sketch=1;" vertex="1" parent="9"><mxGeometry x="40" y="350" width="1920" height="100" as="geometry"/></mxCell><mxCell id="10" value="Website Structure Content" style="locked=1;" parent="0"/><mxCell id="6" value="&lt;font style=&quot;font-size: 60px&quot;&gt;Renegade Master Dev&lt;/font&gt;" style="text;html=1;strokeColor=none;fillColor=none;align=center;verticalAlign=middle;whiteSpace=wrap;rounded=0;shadow=1;sketch=1;" vertex="1" parent="10"><mxGeometry x="150" y="360" width="610" height="80" as="geometry"/></mxCell><mxCell id="7" value="" style="verticalLabelPosition=bottom;verticalAlign=top;html=1;shape=mxgraph.basic.x;shadow=1;sketch=1;fontSize=60;" vertex="1" parent="10"><mxGeometry x="50" y="360" width="80" height="80" as="geometry"/></mxCell><mxCell id="11" value="Website Content" style="locked=1;" parent="0"/></root></mxGraphModel></diagram></mxfile>